<svg width="107" height="23" viewBox="0 0 107 23" fill="none" xmlns="http://www.w3.org/2000/svg">
<path d="M7.8232 17.2592C6.20905 17.2592 4.81223 16.91 3.63272 16.2116C2.4687 15.4977 1.56856 14.5121 0.932191 13.255C0.311417 11.9824 0.000976562 10.5157 0.000976562 8.855C0.000976562 7.17881 0.311417 5.71214 0.932191 4.455C1.56856 3.18234 2.4687 2.18904 3.63272 1.47511C4.81223 0.761178 6.20905 0.404208 7.8232 0.404208C9.76327 0.404208 11.3463 0.885333 12.5724 1.84759C13.7985 2.79433 14.5745 4.13684 14.9004 5.87511H11.8274C11.6101 4.95941 11.1678 4.23771 10.5004 3.71003C9.83311 3.18234 8.93286 2.91849 7.79992 2.91849C6.77558 2.91849 5.89092 3.15906 5.14595 3.64019C4.41646 4.1058 3.85004 4.78869 3.44648 5.68886C3.05851 6.57352 2.86447 7.62893 2.86447 8.855C2.86447 10.0811 3.05851 11.1365 3.44648 12.0211C3.85004 12.8903 4.41646 13.5654 5.14595 14.0465C5.89092 14.5121 6.77558 14.7449 7.79992 14.7449C8.93286 14.7449 9.83311 14.5043 10.5004 14.0233C11.1678 13.5266 11.6101 12.8438 11.8274 11.9746H14.9004C14.59 13.6197 13.8141 14.9157 12.5724 15.8624C11.3463 16.7936 9.76327 17.2592 7.8232 17.2592ZM17.464 16.9799V0.217965H20.2577V16.9799H17.464ZM28.7692 17.2592C27.6518 17.2592 26.6429 17.0031 25.7428 16.491C24.8581 15.9633 24.1597 15.2416 23.6475 14.3259C23.1508 13.3947 22.9025 12.3316 22.9025 11.1365C22.9025 9.91042 23.1586 8.83952 23.6708 7.92378C24.183 6.99257 24.8814 6.27087 25.766 5.75871C26.6662 5.23105 27.675 4.96717 28.7925 4.96717C29.9099 4.96717 30.911 5.23105 31.7957 5.75871C32.6958 6.27087 33.3942 6.98477 33.8909 7.9005C34.4031 8.81624 34.6592 9.88714 34.6592 11.1132C34.6592 12.3393 34.4031 13.4102 33.8909 14.3259C33.3787 15.2416 32.6725 15.9633 31.7724 16.491C30.8877 17.0031 29.8867 17.2592 28.7692 17.2592ZM28.7692 14.8614C29.3279 14.8614 29.8323 14.7217 30.2824 14.4423C30.748 14.1629 31.1205 13.7439 31.3999 13.1852C31.6793 12.6264 31.8189 11.9358 31.8189 11.1132C31.8189 10.2906 31.6793 9.60777 31.3999 9.06452C31.136 8.50579 30.7713 8.08675 30.3057 7.80738C29.8556 7.52802 29.3512 7.38834 28.7925 7.38834C28.2492 7.38834 27.7449 7.52802 27.2793 7.80738C26.8137 8.08675 26.4412 8.50579 26.1618 9.06452C25.8824 9.60777 25.7428 10.2906 25.7428 11.1132C25.7428 11.9358 25.8824 12.6264 26.1618 13.1852C26.4412 13.7439 26.8059 14.1629 27.256 14.4423C27.7216 14.7217 28.226 14.8614 28.7692 14.8614ZM41.6704 17.2592C40.7237 17.2592 39.9089 17.073 39.226 16.7005C38.5586 16.3125 38.0465 15.7382 37.6895 14.9778C37.3324 14.2017 37.154 13.2472 37.154 12.1143V5.24654H39.9477V11.8349C39.9477 12.8438 40.1572 13.612 40.5762 14.1397C41.0108 14.6518 41.6626 14.9079 42.5318 14.9079C43.0905 14.9079 43.5872 14.776 44.0217 14.5121C44.4719 14.2483 44.8211 13.8681 45.0694 13.3714C45.3332 12.8592 45.4651 12.2385 45.4651 11.509V5.24654H48.2588V16.9799H45.791L45.5815 15.0243C45.2245 15.7072 44.7047 16.2504 44.0217 16.6539C43.3544 17.0575 42.5705 17.2592 41.6704 17.2592ZM56.505 17.2592C55.4186 17.2592 54.4486 16.9954 53.5949 16.4677C52.7413 15.94 52.074 15.2106 51.5928 14.2793C51.1272 13.3481 50.8944 12.2927 50.8944 11.1132C50.8944 9.9337 51.135 8.88608 51.6161 7.97035C52.0973 7.03913 52.7646 6.30964 53.6182 5.78199C54.4874 5.23874 55.4652 4.96717 56.5515 4.96717C57.4362 4.96717 58.2045 5.13793 58.8563 5.47934C59.5238 5.80527 60.0514 6.27087 60.4394 6.87617V0.217965H63.233V16.9799H60.7187L60.4394 15.2804C60.1911 15.6218 59.8884 15.9477 59.5314 16.2582C59.1745 16.553 58.7477 16.7936 58.251 16.9799C57.7544 17.1661 57.1724 17.2592 56.505 17.2592ZM57.087 14.8381C57.7544 14.8381 58.3441 14.6829 58.8563 14.3725C59.3685 14.0465 59.7642 13.6042 60.0436 13.0455C60.323 12.4867 60.4627 11.8427 60.4627 11.1132C60.4627 10.3837 60.323 9.73966 60.0436 9.18093C59.7642 8.6222 59.3685 8.18767 58.8563 7.87722C58.3441 7.56678 57.7544 7.41161 57.087 7.41161C56.4507 7.41161 55.8764 7.56678 55.3642 7.87722C54.8521 8.18767 54.4486 8.6222 54.1537 9.18093C53.8743 9.73966 53.7346 10.3837 53.7346 11.1132C53.7346 11.8427 53.8743 12.4867 54.1537 13.0455C54.4486 13.6042 54.8521 14.0465 55.3642 14.3725C55.8764 14.6829 56.4507 14.8381 57.087 14.8381ZM70.1749 17.2592C69.2126 17.2592 68.4134 17.0963 67.777 16.7703C67.1406 16.4444 66.6673 16.0099 66.3569 15.4666C66.0464 14.9234 65.8913 14.3337 65.8913 13.6973C65.8913 12.9524 66.0775 12.3083 66.45 11.7651C66.838 11.2218 67.4045 10.8028 68.1495 10.5079C68.8944 10.1975 69.8102 10.0423 70.8966 10.0423H73.8532C73.8532 9.42153 73.7679 8.90936 73.5971 8.5058C73.4263 8.08675 73.1626 7.77631 72.8056 7.57458C72.4486 7.37285 71.9907 7.27193 71.432 7.27193C70.7956 7.27193 70.2525 7.41941 69.8024 7.71426C69.3523 7.99363 69.0729 8.42816 68.9643 9.01796H66.2172C66.3103 8.17987 66.5897 7.46597 67.0553 6.87617C67.5209 6.27087 68.134 5.80527 68.8944 5.47934C69.6705 5.13793 70.5163 4.96717 71.432 4.96717C72.534 4.96717 73.4729 5.16121 74.2489 5.54918C75.025 5.92167 75.6149 6.46491 76.0179 7.17881C76.4374 7.87722 76.6472 8.72312 76.6472 9.71638V16.9799H74.2722L73.9929 15.0942C73.8377 15.4046 73.6359 15.6916 73.3876 15.9555C73.1548 16.2194 72.8832 16.4522 72.5728 16.6539C72.2623 16.8402 71.9054 16.9877 71.5019 17.0963C71.1139 17.2049 70.6716 17.2592 70.1749 17.2592ZM70.8034 15.0476C71.2536 15.0476 71.6493 14.97 71.9907 14.8148C72.3477 14.644 72.6504 14.4112 72.8987 14.1164C73.1626 13.8059 73.3643 13.4645 73.504 13.092C73.6437 12.7196 73.7368 12.3238 73.7833 11.9047V11.8582H71.1992C70.656 11.8582 70.2059 11.928 69.8489 12.0677C69.4919 12.1919 69.2359 12.3781 69.0807 12.6264C68.9255 12.8747 68.8479 13.1619 68.8479 13.4878C68.8479 13.8137 68.9255 14.0931 69.0807 14.3259C69.2359 14.5587 69.461 14.7372 69.7558 14.8614C70.0507 14.9855 70.3999 15.0476 70.8034 15.0476ZM79.6714 16.9799V5.24654H82.4651V16.9799H79.6714ZM81.0682 3.3841C80.5565 3.3841 80.1293 3.2289 79.7878 2.91849C79.4617 2.59257 79.2991 2.1968 79.2991 1.73119C79.2991 1.25007 79.4617 0.862053 79.7878 0.567171C80.1293 0.256762 80.5565 0.101562 81.0682 0.101562C81.58 0.101562 81.9995 0.256762 82.3256 0.567171C82.6671 0.862053 82.8373 1.25007 82.8373 1.73119C82.8373 2.1968 82.6671 2.59257 82.3256 2.91849C81.9995 3.2289 81.58 3.3841 81.0682 3.3841ZM85.6167 16.9799V5.24654H88.1073L88.3631 7.4349C88.6432 6.92273 88.9924 6.4882 89.4108 6.13119C89.8302 5.75871 90.3189 5.47154 90.8779 5.26982C91.4522 5.06806 92.0803 4.96717 92.7634 4.96717V7.92378H91.786C91.3204 7.92378 90.8779 7.98583 90.4584 8.11003C90.04 8.21863 89.6754 8.40488 89.3646 8.66876C89.0692 8.91705 88.8364 9.26625 88.6662 9.71638C88.496 10.1509 88.4104 10.702 88.4104 11.3693V16.9799H85.6167ZM96.2126 22.1016L99.0765 15.6762H98.3781L93.699 5.24654H96.7485L100.241 13.2084L103.546 5.24654H106.503L99.1699 22.1016H96.2126Z" fill="#18181B"/>
</svg>
